<svg id="Capa_1" enable-background="new 0 0 512 512" height="512" viewBox="0 0 512 512" width="512" xmlns="http://www.w3.org/2000/svg"><g><path d="m512 424.703c0-47.128-38.205-85.333-85.333-85.333l-10 86.315 10 86.315h85.333z" fill="#ece6f2"/><path d="m426.667 339.37c-47.128 0-85.333 38.205-85.333 85.333l-10 42.931 10 44.366h85.333z" fill="#fff5f5"/><path d="m441.667 346.87h-25l10 135.13h15z" fill="#283366"/><path d="m411.667 346.87h15v135.13h-15z" fill="#404a80"/><path d="m426.667 240-10 60.935 10 60.935c33.653 0 60.935-27.282 60.935-60.935 0-33.654-27.282-60.935-60.935-60.935z" fill="#724435"/><path d="m365.732 300.935c0 33.653 27.282 60.935 60.935 60.935v-121.87c-33.654 0-60.935 27.281-60.935 60.935z" fill="#a05f4b"/><path d="m341.333 424.703c0-47.128-38.205-85.333-85.333-85.333l-10 86.315 10 86.315h85.333z" fill="#00c7ce"/><path d="m256 339.37c-47.128 0-85.333 38.205-85.333 85.333l-10 41.841 10 45.456h85.333z" fill="#00e7f0"/><path d="m256 240-10 60.935 10 60.935c33.653 0 60.935-27.282 60.935-60.935 0-33.654-27.282-60.935-60.935-60.935z" fill="#a05f4b"/><path d="m195.065 300.935c0 33.653 27.282 60.935 60.935 60.935v-121.87c-33.653 0-60.935 27.281-60.935 60.935z" fill="#c9885b"/><path d="m256 0-10 105 10 105c57.897 0 105-47.103 105-105s-47.103-105-105-105z" fill="#cfcfe6"/><path d="m151 105c0 57.897 47.103 105 105 105v-210c-57.897 0-105 47.103-105 105z" fill="#ece6f2"/><path d="m331 105c0-41.355-33.645-75-75-75l-10 75 10 75c41.355 0 75-33.645 75-75z" fill="#ece6f2"/><path d="m181 105c0 41.355 33.645 75 75 75v-150c-41.355 0-75 33.645-75 75z" fill="#fff5f5"/><path d="m271 120h30v-30h-30v-30h-15l-10 45 10 45h15z" fill="#00969b"/><path d="m241 60v30h-30v30h30v30h15v-90z" fill="#00c7ce"/><path d="m75.333 421.227 10 90.773h85.333v-87.297c0-20.099-6.966-38.562-18.593-53.144z" fill="#884dff"/><path d="m0 424.703v87.297h85.333v-90.773l-66.74-49.667c-11.627 14.582-18.593 33.044-18.593 53.143z" fill="#aa80ff"/><path d="m85.334 339.37-10 42.174 10 49.683 66.74-59.667c-15.635-19.609-39.712-32.19-66.74-32.19z" fill="#ece6f2"/><path d="m85.333 339.37c-27.029 0-51.105 12.581-66.74 32.19l66.74 59.667z" fill="#fff5f5"/><path d="m85.333 240-10 60.935 10 60.935c33.653 0 60.935-27.282 60.935-60.935 0-33.654-27.281-60.935-60.935-60.935z" fill="#ffbeaa"/><path d="m24.398 300.935c0 33.653 27.282 60.935 60.935 60.935v-121.87c-33.653 0-60.935 27.281-60.935 60.935z" fill="#ffdecf"/></g></svg>